 <svg  version="1.0" xmlns="http://www.w3.org/2000/svg"  width="300.000000pt" height="63.000000pt" viewBox="0 0 300.000000 63.000000"  preserveAspectRatio="xMidYMid meet">  <g transform="translate(0.000000,63.000000) scale(0.100000,-0.100000)" fill="#f5f4f4" stroke="none"> <path d="M18 605 c-27 -36 -23 -101 7 -137 14 -16 25 -33 25 -38 0 -5 -11 -22 -25 -38 -18 -22 -25 -42 -25 -74 0 -51 23 -80 79 -99 l33 -12 -36 -12 c-61 -21 -76 -41 -76 -100 0 -68 26 -95 92 -95 39 0 50 5 72 31 15 18 26 43 26 61 0 38 20 33 34 -9 22 -62 46 -83 97 -83 36 0 51 5 69 25 30 32 60 32 90 0 19 -20 33 -25 71 -25 40 0 51 4 73 31 34 40 34 88 1 127 -42 51 -112 49 -154 -2 -19 -23 -45 -20 -82 11 -27 23 -41 28 -83 26 -45 -1 -55 2 -83 30 -28 26 -33 38 -33 77 0 33 -7 55 -25 80 -31 42 -31 50 0 96 30 44 32 78 5 122 -19 30 -23 32 -77 32 -50 -1 -61 -4 -75 -25z m119 -17 c33 -31 30 -72 -7 -100 -25 -18 -30 -29 -30 -65 0 -26 5 -43 12 -43 37 0 60 -59 39 -99 -8 -14 2 -29 53 -80 61 -60 63 -61 90 -47 34 17 63 10 83 -20 13 -20 24 -24 63 -24 40 0 50 4 55 20 6 20 47 37 75 31 49 -9 66 -75 30 -111 -30 -30 -75 -26 -102 10 -18 25 -29 30 -65 30 -24 0 -43 -4 -43 -10 0 -20 -41 -50 -68 -50 -34 0 -66 31 -67 66 -2 38 -121 154 -158 154 -41 0 -81 43 -72 78 8 33 23 52 41 52 10 0 14 13 14 41 0 33 -6 47 -30 69 -36 34 -38 63 -5 95 30 31 62 32 92 3z m6 -446 c21 -19 22 -60 1 -90 -23 -33 -79 -27 -107 10 -17 23 -18 31 -8 56 21 50 72 61 114 24z"/> <path d="M54 565 c-15 -23 -15 -27 0 -50 28 -43 86 -26 86 25 0 51 -58 68 -86 25z"/> <path d="M60 350 c-25 -25 -25 -42 -2 -63 51 -46 115 19 66 67 -21 21 -40 20 -64 -4z"/> <path d="M533 140 c-43 -17 -40 -75 5 -87 34 -8 57 8 57 42 0 34 -31 57 -62 45z"/> <path d="M280 120 c-6 -12 -8 -30 -5 -40 7 -24 52 -37 74 -23 20 13 26 50 11 69 -19 21 -67 18 -80 -6z"/> <path d="M73 140 c-48 -19 -36 -90 16 -90 16 0 34 7 41 14 29 36 -13 93 -57 76z"/> <path d="M248 606 c-27 -37 -31 -71 -14 -104 21 -40 53 -62 92 -62 44 0 119 -77 128 -131 8 -49 54 -89 103 -89 48 0 93 47 93 97 0 52 -54 103 -108 103 -34 0 -45 6 -81 45 -27 30 -41 54 -41 72 0 16 -9 43 -20 61 -19 30 -23 32 -77 32 -49 -1 -61 -4 -75 -24z m121 -17 c17 -16 22 -30 19 -59 -3 -34 2 -44 56 -100 57 -59 60 -61 88 -49 25 10 33 9 56 -8 55 -41 30 -123 -37 -123 -38 0 -75 43 -66 77 4 19 -7 38 -57 93 -40 44 -66 66 -72 60 -29 -29 -106 15 -106 60 0 28 43 70 73 70 13 0 33 -9 46 -21z"/> <path d="M284 565 c-15 -23 -15 -27 0 -50 28 -43 86 -26 86 25 0 51 -58 68 -86 25z"/> <path d="M520 350 c-25 -25 -25 -42 -2 -63 51 -46 115 19 66 67 -21 21 -40 20 -64 -4z"/> <path d="M475 602 c-31 -42 -25 -99 14 -134 35 -31 68 -35 110 -14 51 27 64 89 31 144 -19 30 -23 32 -77 32 -51 -1 -60 -4 -78 -28z m123 -12 c28 -26 28 -67 0 -97 -38 -41 -100 -20 -114 39 -4 21 0 33 20 52 30 31 65 33 94 6z"/> <path d="M514 565 c-15 -23 -15 -27 0 -50 28 -43 86 -26 86 25 0 51 -58 68 -86 25z"/> <path d="M1215 563 c-11 -3 -31 -13 -45 -23 -24 -17 -26 -17 -48 0 -20 16 -44 19 -212 19 l-189 1 -20 -27 c-29 -36 -27 -48 19 -84 l40 -32 0 -146 c0 -165 8 -191 60 -191 51 0 60 27 60 185 0 138 7 174 29 161 7 -5 11 -57 11 -155 0 -129 2 -152 18 -171 25 -31 114 -39 165 -15 32 15 38 15 66 1 38 -20 84 -20 121 -1 18 9 31 11 35 5 14 -22 64 -10 86 20 l22 30 19 -30 c13 -22 25 -30 47 -30 56 0 61 21 61 240 0 192 0 197 -23 218 -31 29 -50 28 -80 -7 l-24 -29 -32 31 c-27 28 -34 30 -58 21 -21 -8 -36 -7 -58 2 -32 14 -39 15 -70 7z m66 -43 c10 -6 19 -19 19 -29 0 -15 -7 -18 -36 -17 -29 1 -41 -5 -58 -27 -18 -25 -21 -42 -21 -137 0 -93 3 -111 20 -130 19 -21 37 -22 78 -5 13 5 17 2 17 -13 0 -31 -27 -52 -66 -52 -80 0 -99 39 -99 200 0 92 4 123 19 153 28 56 82 80 127 57z m-351 -20 c0 -17 -7 -20 -42 -20 l-43 0 0 -182 c0 -182 0 -183 -22 -186 l-23 -3 0 186 0 187 -40 -4 c-36 -3 -40 -1 -40 19 0 22 2 23 105 23 98 0 105 -1 105 -20z m180 0 c0 -18 -7 -20 -55 -20 l-55 0 0 -60 0 -60 45 0 c42 0 45 -2 45 -26 0 -24 -3 -25 -42 -22 l-43 3 -3 -78 -3 -77 56 0 c55 0 65 -8 46 -38 -8 -14 -141 -14 -141 1 0 4 0 95 0 202 l0 195 75 0 c68 0 75 -2 75 -20z m279 -60 c-2 -44 -1 -80 4 -80 4 0 25 0 47 0 l40 0 0 80 c0 76 1 80 23 80 l22 0 -1 -202 c-2 -198 -3 -203 -23 -206 -20 -3 -21 1 -21 97 l0 101 -48 0 -47 0 0 -97 c0 -94 -1 -98 -22 -101 l-23 -3 0 205 0 206 26 0 26 0 -3 -80z m-291 -17 c-4 -22 -48 -31 -48 -10 0 19 10 27 32 27 13 0 18 -6 16 -17z m202 -93 c0 -105 -5 -120 -36 -120 -32 0 -44 27 -44 99 0 93 24 140 62 120 15 -8 18 -23 18 -99z m-210 -95 c0 -28 -4 -35 -20 -35 -16 0 -20 7 -20 35 0 28 4 35 20 35 16 0 20 -7 20 -35z"/> <path d="M1734 559 c-46 -13 -90 -68 -103 -129 -14 -65 -14 -189 0 -243 24 -94 107 -140 193 -107 15 5 35 6 49 1 34 -13 63 3 83 48 23 50 49 53 67 9 21 -50 37 -58 123 -62 85 -5 130 8 171 46 l23 22 34 -33 c42 -41 107 -52 156 -27 28 14 35 14 61 1 61 -32 153 -14 179 35 15 27 -13 68 -54 78 -48 13 -48 51 1 83 23 14 39 34 41 47 4 27 -22 60 -56 73 -50 19 5 49 64 35 22 -6 23 -9 26 -160 3 -135 5 -157 22 -175 24 -26 60 -27 86 -1 18 18 20 33 20 170 l0 150 40 25 c32 20 40 31 40 54 0 53 -28 61 -219 61 -107 0 -179 -4 -195 -11 -17 -8 -30 -9 -38 -2 -43 34 -127 21 -173 -27 l-29 -30 -25 24 c-14 13 -36 29 -48 35 -23 12 -101 15 -128 5 -26 -10 -45 -59 -46 -121 l-1 -58 -22 65 c-30 89 -42 109 -72 116 -39 10 -69 -26 -89 -105 -22 -90 -28 -100 -53 -78 -11 10 -35 17 -60 17 -30 0 -42 4 -42 15 0 18 31 35 63 35 13 0 31 8 40 18 53 58 -38 129 -129 101z m90 -39 c16 -6 26 -17 26 -30 0 -17 -5 -19 -44 -14 -36 5 -46 3 -64 -16 -25 -27 -37 -104 -30 -201 6 -78 18 -99 58 -99 28 0 28 0 32 75 3 73 2 75 -20 75 -18 0 -23 5 -20 22 2 19 10 22 46 23 l42 1 0 -111 c0 -110 0 -112 -25 -123 -14 -7 -44 -12 -65 -12 -77 0 -104 63 -98 225 3 78 8 108 24 135 31 54 81 72 138 50z m707 0 c10 -6 19 -19 19 -29 0 -16 -7 -19 -46 -18 -40 2 -49 -2 -67 -25 -27 -36 -36 -181 -15 -243 12 -36 16 -40 47 -40 l34 0 1 73 c1 69 0 72 -22 72 -18 0 -23 5 -20 22 2 19 10 22 46 23 l42 1 0 -113 c0 -113 0 -114 -26 -123 -62 -24 -125 -5 -146 44 -18 44 -18 250 1 295 24 57 101 88 152 61z m-508 -32 c3 -18 26 -109 51 -201 36 -137 42 -169 30 -174 -28 -10 -42 6 -49 56 l-7 51 -52 0 -53 0 -12 -55 c-11 -48 -15 -55 -37 -55 -13 0 -24 3 -24 7 0 3 23 96 51 205 48 183 54 198 74 198 17 0 24 -7 28 -32z m267 4 c33 -34 46 -106 37 -213 -10 -123 -50 -169 -147 -169 l-40 0 0 205 0 205 61 0 c53 0 64 -3 89 -28z m450 8 c0 -17 -7 -20 -50 -20 l-50 0 0 -60 0 -60 46 0 c41 0 45 -2 42 -22 -3 -20 -9 -23 -46 -23 l-42 0 0 -77 0 -78 50 0 c47 0 50 -2 50 -25 0 -24 -2 -25 -75 -25 l-75 0 0 205 0 205 75 0 c68 0 75 -2 75 -20z m230 0 c0 -17 -7 -20 -45 -20 l-46 0 1 -182 c2 -183 2 -183 -20 -183 -23 0 -23 0 -21 183 l2 182 -40 0 c-34 0 -41 3 -41 20 0 19 7 20 105 20 98 0 105 -1 105 -20z m-431 -69 c25 -16 4 -41 -33 -41 -39 0 -53 14 -36 35 14 17 48 19 69 6z"/> <path d="M1982 390 c-7 -36 -16 -80 -21 -97 l-10 -33 40 0 c21 0 39 3 39 8 0 4 -9 47 -19 97 l-18 90 -11 -65z"/> <path d="M2190 320 l0 -160 25 0 c32 0 45 26 56 109 16 127 -8 211 -61 211 -19 0 -20 -7 -20 -160z"/> <path d="M283 410 c-31 -13 -57 -57 -57 -98 0 -47 49 -92 100 -92 50 0 94 45 94 95 0 47 -13 71 -50 90 -32 17 -54 18 -87 5z m81 -41 c32 -25 35 -70 5 -100 -46 -46 -133 5 -112 67 9 27 43 54 69 54 6 0 23 -9 38 -21z"/> <path d="M290 350 c-25 -25 -25 -42 -2 -63 51 -46 115 19 66 67 -21 21 -40 20 -64 -4z"/> </g> </svg> 